<svg width="16" height="16" viewBox="0 0 16 16" fill="none" xmlns="http://www.w3.org/2000/svg">
<path d="M3.15625 1.32812C3.15625 1.15104 3.22135 0.997396 3.35156 0.867188C3.48177 0.736979 3.64062 0.671875 3.82812 0.671875H11.8281C12.0156 0.671875 12.1745 0.736979 12.3047 0.867188C12.4349 0.997396 12.5 1.15104 12.5 1.32812V6C12.5 6.1875 12.4349 6.34635 12.3047 6.47656C12.1745 6.60677 12.0156 6.67188 11.8281 6.67188C11.6406 6.67188 11.4818 6.60677 11.3516 6.47656C11.2214 6.34635 11.1562 6.1875 11.1562 6V2H4.5V6C4.5 6.1875 4.4349 6.34635 4.30469 6.47656C4.17448 6.60677 4.01562 6.67188 3.82812 6.67188C3.64062 6.67188 3.48177 6.60677 3.35156 6.47656C3.22135 6.34635 3.15625 6.1875 3.15625 6V1.32812ZM2.5 6.67188C2.40625 6.67188 2.31771 6.6875 2.23438 6.71875C2.15104 6.75 2.07812 6.79688 2.01562 6.85938C1.95312 6.92188 1.90625 6.99479 1.875 7.07812C1.84375 7.16146 1.82812 7.24479 1.82812 7.32812V10.6719C1.82812 10.7552 1.84375 10.8385 1.875 10.9219C1.90625 11.0052 1.95312 11.0781 2.01562 11.1406C2.07812 11.2031 2.15104 11.25 2.23438 11.2812C2.31771 11.3125 2.40625 11.3281 2.5 11.3281H3.82812C4.01562 11.3281 4.17448 11.3932 4.30469 11.5234C4.4349 11.6536 4.5 11.8125 4.5 12C4.5 12.1875 4.4349 12.3464 4.30469 12.4766C4.17448 12.6068 4.01562 12.6719 3.82812 12.6719H2.5C2.22917 12.6719 1.97135 12.6198 1.72656 12.5156C1.48177 12.4115 1.26562 12.2656 1.07812 12.0781C0.890625 11.8906 0.747396 11.6745 0.648438 11.4297C0.549479 11.1849 0.5 10.9323 0.5 10.6719V7.32812C0.5 7.06771 0.549479 6.8151 0.648438 6.57031C0.747396 6.32552 0.890625 6.10938 1.07812 5.92188C1.26562 5.73438 1.48177 5.58854 1.72656 5.48438C1.97135 5.38021 2.22917 5.32812 2.5 5.32812H13.1562C13.4271 5.32812 13.6849 5.38021 13.9297 5.48438C14.1745 5.58854 14.3906 5.73438 14.5781 5.92188C14.7656 6.10938 14.9089 6.32552 15.0078 6.57031C15.1068 6.8151 15.1562 7.06771 15.1562 7.32812V10.6719C15.1562 10.9323 15.1068 11.1849 15.0078 11.4297C14.9089 11.6745 14.7656 11.8906 14.5781 12.0781C14.3906 12.2656 14.1745 12.4115 13.9297 12.5156C13.6849 12.6198 13.4271 12.6719 13.1562 12.6719H11.8281C11.6406 12.6719 11.4818 12.6068 11.3516 12.4766C11.2214 12.3464 11.1562 12.1875 11.1562 12C11.1562 11.8125 11.2214 11.6536 11.3516 11.5234C11.4818 11.3932 11.6406 11.3281 11.8281 11.3281H13.1562C13.25 11.3281 13.3385 11.3125 13.4219 11.2812C13.5052 11.25 13.5781 11.2031 13.6406 11.1406C13.7031 11.0781 13.75 11.0052 13.7812 10.9219C13.8125 10.8385 13.8281 10.7552 13.8281 10.6719V7.32812C13.8281 7.24479 13.8125 7.16146 13.7812 7.07812C13.75 6.99479 13.7031 6.92188 13.6406 6.85938C13.5781 6.79688 13.5052 6.75 13.4219 6.71875C13.3385 6.6875 13.25 6.67188 13.1562 6.67188H2.5ZM3.15625 9.32812C3.15625 9.15104 3.22135 8.9974 3.35156 8.86719C3.48177 8.73698 3.64062 8.67188 3.82812 8.67188H11.8281C12.0156 8.67188 12.1745 8.73698 12.3047 8.86719C12.4349 8.9974 12.5 9.15104 12.5 9.32812V14.6719C12.5 14.849 12.4349 15.0026 12.3047 15.1328C12.1745 15.263 12.0156 15.3281 11.8281 15.3281H3.82812C3.64062 15.3281 3.48177 15.263 3.35156 15.1328C3.22135 15.0026 3.15625 14.849 3.15625 14.6719V9.32812ZM4.5 10V14H11.1562V10H4.5Z" fill="black" fill-opacity="0.87"/>
</svg>
